# Blender v3.1.2 OBJ File: ''
# www.blender.org
mtllib noel.mtl
o scene
v 1.000000 -0.000000 -1.000000
v -1.000000 0.000000 1.000000
v -1.000000 0.000000 -1.000000
v 1.000000 -0.000000 1.000000
v -1.000000 0.000000 -1.000000
v 0.000000 2.000000 -0.000000
v 1.000000 -0.000000 -1.000000
v -1.000000 0.000000 1.000000
v 0.000000 2.000000 -0.000000
v -1.000000 0.000000 -1.000000
v 1.000000 -0.000000 -1.000000
v 0.000000 2.000000 -0.000000
v 1.000000 -0.000000 1.000000
v 1.000000 -0.000000 1.000000
v 0.000000 2.000000 -0.000000
v -1.000000 0.000000 1.000000
vt 0.271484 0.888281
vt 0.703125 0.462500
vt 0.271484 0.462500
vt 0.703125 0.888281
vt 0.698190 0.353717
vt 0.397970 0.687746
vt 0.296206 0.349034
vt 0.993726 0.273712
vt 0.767733 0.758500
vt 0.576154 0.253553
vt 0.578541 0.253883
vt 0.766187 0.757445
vt 0.993724 0.272633
vt 0.328457 0.588332
vt 0.674440 0.628957
vt 0.455342 0.801831
vn -0.0000 -1.0000 0.0000
vn 0.0000 0.4472 -0.8944
vn -0.8944 0.4472 0.0000
vn 0.8944 0.4472 -0.0000
vn 0.0000 0.4472 0.8944
usemtl material_0
s 1
f 1/1/1 2/2/1 3/3/1
f 1/1/1 4/4/1 2/2/1
f 5/5/2 6/6/2 7/7/2
f 8/8/3 9/9/3 10/10/3
f 11/11/4 12/12/4 13/13/4
f 14/14/5 15/15/5 16/16/5
